<svg xmlns="http://www.w3.org/2000/svg" width="161" height="90" fill="none" viewBox="0 0 161 90"><g clip-path="url(#a)"><rect width="160" height="90" x="0.5" y="0.00012207" fill="#fff" rx="16"/><g clip-path="url(#b)"><path fill="#FF385C" d="M60.29 51.262c-.153-.366-.295-.75-.447-1.078l-.704-1.566-.028-.028a310 310 0 0 0-6.691-13.575l-.095-.188c-.238-.44-.475-.928-.723-1.378-.304-.534-.598-1.106-1.083-1.65a5 5 0 0 0-1.74-1.342 5.1 5.1 0 0 0-4.312 0 5 5 0 0 0-1.741 1.342c-.447.544-.78 1.116-1.084 1.65-.237.488-.475.966-.722 1.406l-.095.188c-2.329 4.5-4.6 9.075-6.69 13.575l-.058.056c-.209.488-.456.994-.694 1.538a18 18 0 0 0-.456 1.078 6.3 6.3 0 0 0 .92 6.251c.69.874 1.6 1.555 2.639 1.976a6.55 6.55 0 0 0 3.284.426 8 8 0 0 0 3.022-1.031c1.236-.685 2.424-1.678 3.754-3.113 1.331 1.435 2.547 2.428 3.755 3.122a8.05 8.05 0 0 0 3.82 1.078 6.5 6.5 0 0 0 4.245-1.548 6.34 6.34 0 0 0 2.17-3.918 5.5 5.5 0 0 0-.247-3.28zm-13.65 1.556c-1.634-2.063-2.699-3.956-3.06-5.578a4.8 4.8 0 0 1-.095-1.838 2.9 2.9 0 0 1 .494-1.256c.57-.816 1.569-1.322 2.661-1.322a3.2 3.2 0 0 1 1.499.325c.464.23.864.569 1.163.988.247.375.427.787.484 1.265.095.544.057 1.172-.095 1.838-.36 1.593-1.425 3.506-3.05 5.578m12.109 1.387a4.43 4.43 0 0 1-.903 2.12 4.5 4.5 0 0 1-1.854 1.396c-.722.3-1.52.384-2.3.3a6 6 0 0 1-2.3-.788 14.8 14.8 0 0 1-3.45-2.906c1.996-2.437 3.203-4.66 3.66-6.637a7.3 7.3 0 0 0 .152-2.56 5.15 5.15 0 0 0-.818-2.062 5.1 5.1 0 0 0-1.863-1.594 5.15 5.15 0 0 0-2.404-.544c-1.758 0-3.327.807-4.277 2.129a4.8 4.8 0 0 0-.808 2.071 6.1 6.1 0 0 0 .152 2.56c.456 1.978 1.692 4.228 3.66 6.656a13.6 13.6 0 0 1-3.45 2.925c-.79.45-1.54.684-2.3.778a4.57 4.57 0 0 1-3.324-.882 4.45 4.45 0 0 1-1.733-2.934c-.095-.75-.028-1.5.276-2.343.095-.3.237-.6.39-.956.209-.488.456-.994.693-1.5l.038-.066a305 305 0 0 1 6.625-13.51l.095-.187c.237-.45.475-.928.722-1.378.247-.478.513-.938.855-1.313a3.15 3.15 0 0 1 1.084-.821 3.2 3.2 0 0 1 2.67 0 3.15 3.15 0 0 1 1.084.821c.333.375.608.835.855 1.313.238.45.476.937.723 1.378l.095.188a369 369 0 0 1 6.652 13.509l.029.028c.247.487.456 1.031.694 1.5.152.366.304.656.399.966.18.843.276 1.593.18 2.343m13.23-1.593a4.8 4.8 0 0 1-2.076-.436 4.8 4.8 0 0 1-1.679-1.28 6.1 6.1 0 0 1-1.52-4.2 6.47 6.47 0 0 1 1.577-4.294 5 5 0 0 1 1.743-1.296 5.1 5.1 0 0 1 2.135-.448 4.1 4.1 0 0 1 1.994.452 4.1 4.1 0 0 1 1.522 1.349l.095-1.472h2.775v11.325h-2.784l-.095-1.65a4.3 4.3 0 0 1-1.587 1.447 4.34 4.34 0 0 1-2.1.503m.721-2.7c.552 0 1.036-.15 1.493-.422.418-.3.76-.694 1.026-1.172.238-.478.361-1.05.361-1.688a3.17 3.17 0 0 0-.317-1.607 3.2 3.2 0 0 0-1.08-1.243 2.83 2.83 0 0 0-2.965 0c-.418.3-.76.694-1.027 1.172a3.7 3.7 0 0 0-.36 1.688 3.17 3.17 0 0 0 .316 1.607c.245.5.617.928 1.08 1.243.447.272.932.422 1.474.422M83.3 37.93c0 .328-.058.629-.21.872-.152.235-.36.45-.636.6s-.57.206-.875.206a1.8 1.8 0 0 1-.884-.206c-.26-.143-.48-.35-.636-.6a1.7 1.7 0 0 1-.21-.872c0-.337.067-.637.21-.871.152-.282.37-.45.636-.6.276-.15.57-.216.884-.216.303-.007.602.064.868.205.267.141.492.349.653.601.138.273.207.576.2.881m-3.232 14.344V40.968h3.022v11.325h-3.031zm11.1-8.344v.038c-.142-.066-.332-.094-.474-.122-.19-.037-.343-.037-.523-.037-.846 0-1.483.243-1.9.75-.457.515-.666 1.237-.666 2.165v5.56h-3.032V40.959h2.785l.095 1.715c.304-.6.665-1.05 1.178-1.387a3 3 0 0 1 1.72-.47c.22 0 .428.02.609.057.095.028.152.028.209.056zm1.217 8.344V36.318h3.023v6.094a4.8 4.8 0 0 1 1.52-1.294 4.83 4.83 0 0 1 3.106-.375 4.8 4.8 0 0 1 2.673 1.603 6.1 6.1 0 0 1 1.52 4.21 6.47 6.47 0 0 1-1.577 4.293 5 5 0 0 1-1.743 1.297 5.1 5.1 0 0 1-2.135.447 4.1 4.1 0 0 1-1.994-.452 4.1 4.1 0 0 1-1.522-1.348l-.096 1.472-2.775.028zm5.845-2.362c.542 0 1.027-.15 1.483-.422.418-.3.76-.694 1.026-1.172.248-.478.362-1.05.362-1.688 0-.628-.114-1.2-.362-1.678a3.5 3.5 0 0 0-1.026-1.172 2.83 2.83 0 0 0-2.965 0c-.428.3-.76.694-1.036 1.172a3.7 3.7 0 0 0-.361 1.688 3.17 3.17 0 0 0 .317 1.607c.245.5.617.928 1.08 1.243a2.8 2.8 0 0 0 1.482.422m7.138 2.371V40.96h2.785l.095 1.471a3.74 3.74 0 0 1 1.437-1.337 3.8 3.8 0 0 1 1.927-.435 3.94 3.94 0 0 1 2.165.604 3.86 3.86 0 0 1 1.466 1.684c.332.712.513 1.594.513 2.578v6.788h-3.032v-6.394c0-.788-.181-1.406-.542-1.866-.361-.45-.855-.694-1.482-.694-.457 0-.856.094-1.207.3a2.35 2.35 0 0 0-.818.872 2.5 2.5 0 0 0-.304 1.266v6.487zm11.899 0V36.31h3.032v6.093a4.4 4.4 0 0 1 1.56-1.299 4.5 4.5 0 0 1 1.985-.473 4.8 4.8 0 0 1 2.075.436c.65.297 1.224.734 1.679 1.28a6.1 6.1 0 0 1 1.511 4.2 6.47 6.47 0 0 1-1.578 4.294 5 5 0 0 1-1.742 1.296 5.1 5.1 0 0 1-2.135.447 4.14 4.14 0 0 1-1.995-.451 4.1 4.1 0 0 1-1.522-1.349l-.085 1.472zm5.873-2.371c.552 0 1.036-.15 1.483-.422.428-.3.76-.694 1.036-1.172.238-.478.361-1.05.361-1.688a3.17 3.17 0 0 0-.317-1.607 3.2 3.2 0 0 0-1.08-1.243 2.83 2.83 0 0 0-2.965 0c-.418.3-.761.694-1.027 1.172a3.4 3.4 0 0 0-.361 1.688 3.17 3.17 0 0 0 .317 1.607c.245.5.617.928 1.08 1.243.447.272.903.422 1.473.422"/></g></g><defs><clipPath id="a"><path fill="#fff" d="M.5 0h160v90H.5z"/></clipPath><clipPath id="b"><path fill="#fff" d="M32.5 30h96.941v30H32.5z"/></clipPath></defs></svg>