<svg xmlns="http://www.w3.org/2000/svg" width="161" height="90" fill="none" viewBox="0 0 161 90"><g clip-path="url(#a)"><rect width="160" height="90" x="0.5" y="0.00012207" fill="#fff" rx="16"/><g fill-rule="evenodd" clip-path="url(#b)" clip-rule="evenodd"><path fill="#1D1E25" d="m115.677 43.914-5.87 10.157-5.008.02 10.878-19.119 10.839 19.119h-5.088l-5.751-10.178M99.87 49.669h5.61l-2.605 4.422h-7.31l.019-5.384V35.09h4.307l-.02 14.579M84.486 35.09c5.349.02 9.676 4.263 9.656 9.509-.02 5.226-4.347 9.47-9.697 9.47-5.328-.02-9.656-4.263-9.656-9.51.02-5.226 4.347-9.469 9.697-9.469m-.02 14.559c2.864 0 5.167-2.26 5.167-5.05.021-2.79-2.303-5.07-5.147-5.07-2.845-.02-5.17 2.26-5.17 5.05-.019 2.79 2.305 5.07 5.15 5.07m-17.65-6.56c-.06-.786-.26-1.827-.56-2.828A14.4 14.4 0 0 0 63.11 34.7c-.761-.825-1.622-1.592-2.906-2.496a49 49 0 0 1-2.884-1.551c-.62-.354-1.362-.787-2.343-1.101a17 17 0 0 0-3.547-.451 15.5 15.5 0 0 0-3.445.274c-1.183.197-2.164.51-3.467.825-2.945 1.277-5.228 3.203-7.192 5.758-6.851 9.607-.66 23.066 10.779 24.657 1.883.256 3.766.157 5.549-.255l1.262-.334c.04-.02.1-.04.14-.04l1.443-.55c.08-.04.14-.06.22-.098l.601-.275a16.4 16.4 0 0 0 3.225-2.102c-.9.822-1.88 1.553-2.924 2.18l.06.04c.2-.06.38-.118.58-.157 0 0 0 .314-.04.255-.32.236.181.02.822-.315a10 10 0 0 0 1.823-1.218c.822-.687 1.543-1.434 2.565-2.651 1.04-1.828 2.344-3.42 2.945-5.562.2-.57.38-1.237.501-1.925.119-.687.2-1.395.2-2.122a16 16 0 0 0-.26-2.396M51.992 59.242c3.506-.55 6.45-2.495 8.855-5.147.662-.964 1.182-1.848 1.823-2.81.801-1.966.742-3.714 1.002-4.951.32-2.241-.44-4.048-1.081-5.974-.982-2.24-2.285-3.91-4.569-5.206-5.77-3.576-13.623-2.575-17.369 2.77-.02 0-.12.137-.321.412.26-1.1.922-1.748 1.583-2.377 1.964-1.611 4.248-2.889 6.852-3.517 2.946-.314 5.87 0 8.494 1.277 3.927 2.24 6.532 5.758 7.192 9.922v3.851c-.821 6.308-6.23 11.102-12.46 11.75m14.405-14.343c-.14-9.234-9.296-15.463-18.211-14.205-2.605.648-5.45 1.945-7.473 3.753-.982.647-1.442 1.846-2.424 2.809-3.927 5.757-3.245 13.125 1.642 17.606q.942.934 2.004 1.729c-4.086-2.458-5.93-6.172-6.57-10.69 0-1.611.32-3.203.66-4.813 2.285-7.055 9.476-12.183 17.31-10.886 1.302.315 2.605.649 3.928.963 1.642.648 3.265 1.611 4.567 2.89 1.302 1.275 2.284 2.887 3.266 4.478.66 1.278.982 2.888 1.302 4.165.06.727.06 1.474 0 2.202z"/><path fill="#fff" d="M58.262 45.036c0 3.97-3.325 7.192-7.432 7.192-4.106 0-7.432-3.223-7.432-7.192 0-3.968 3.325-7.19 7.432-7.19s7.432 3.222 7.432 7.191z"/><path fill="#D7DF23" d="M58.303 43.818c-.1-.55-.261-.982-.42-1.591-.642-1.337-1.584-2.378-2.826-3.262-4.648-3.084-11.039-.118-11.72 5.149-.259 2.083.482 4.087 1.804 5.62-.4-.414-.841-.845-1.142-1.337l-.04.04c.04.117.201.196.24.314 0 0-.16 0-.12-.02-.12-.137-.019.08.16.373q.241.442.602.826c.34.373.7.707 1.302 1.16.882.45 1.663 1.04 2.684 1.315.281.08.601.157.923.216.34.06.66.08 1.021.08.34 0 .701-.04 1.142-.12a8 8 0 0 0 1.342-.274 6.95 6.95 0 0 0 2.645-1.494c.38-.352.922-.805 1.342-1.394.34-.668.38-1.002.541-1.297.16-.295.36-.629.501-1.08a9.3 9.3 0 0 0 .2-1.632c-.02-.55-.06-1.08-.18-1.591zm-4.769-3.654c.682.393.782.451.42.196.523.118.843.413 1.163.708.782.884 1.422 1.925 1.743 3.123.18 1.356.04 2.712-.54 3.911-1.042 1.827-2.705 3.045-4.689 3.379-.22 0-.46 0-.681.02.561-.099.922-.453 1.944-.826 1.1-.393 2.343-2.22 2.945-3.281 1.763-2.889-.321-5.56-2.305-7.23M49.77 51.52c-3.045-.314-5.39-2.81-5.71-5.698.28 1.612 1.242 2.849 2.544 3.95.461.294 1.141.707 1.603 1.002.781.294 1.241.61 2.003.747zm8.193-5.246c-.14.61-.28 1.198-.42 1.808-.301.747-.742 1.513-1.343 2.122-.6.61-1.362 1.08-2.123 1.533-.601.313-1.363.47-1.984.627-.36.04-.781-.117-1.142-.136 4.448-.119 7.493-4.264 6.832-8.37-.321-1.199-.962-2.24-1.743-3.281-.32-.453-.943-.728-1.403-1.18-2.785-1.748-6.47-1.394-8.574.905a10 10 0 0 0-.822.962c1.123-1.65 2.926-2.81 5.089-3.144.762-.02 1.543.119 2.304.256 3.366 1.021 5.87 4.283 5.329 7.9z"/></g></g><defs><clipPath id="a"><path fill="#fff" d="M.5 0h160v90H.5z"/></clipPath><clipPath id="b"><path fill="#fff" d="M34.382 29.063h92.236v31.875H34.382z"/></clipPath></defs></svg>