<svg xmlns="http://www.w3.org/2000/svg" width="367" height="261" fill="none" viewBox="0 0 367 261"><g clip-path="url(#a)"><mask id="b" width="369" height="261" x="-1" y="8" maskUnits="userSpaceOnUse" style="mask-type:luminance"><path fill="#fff" d="m-.035 8.878 367.22.102-.072 260-367.22-.102z"/></mask><g mask="url(#b)"><g clip-path="url(#c)"><path fill="#808D9E" d="M336.767 250.607q0 1.381-.499 2.387-.5 1.005-1.369 1.55t-1.985.545q-1.118 0-1.986-.546-.87-.546-1.368-1.551-.498-1.006-.497-2.387 0-1.38.499-2.386.498-1.005 1.368-1.551.87-.545 1.986-.545 1.116.001 1.986.546.869.546 1.367 1.552t.498 2.386m-1.023 0q0-1.133-.378-1.913-.375-.78-1.019-1.181a2.64 2.64 0 0 0-1.431-.401 2.66 2.66 0 0 0-1.436.4q-.64.4-1.019 1.18-.375.78-.376 1.914 0 1.133.375 1.913.378.78 1.018 1.181.643.4 1.436.401.793 0 1.432-.401.643-.4 1.019-1.18.38-.779.379-1.913m5.322 4.502q-.92-.001-1.586-.436a2.83 2.83 0 0 1-1.022-1.197q-.358-.763-.357-1.743 0-.998.367-1.76.37-.766 1.031-1.197.664-.435 1.551-.434.69 0 1.245.256.553.255.907.716t.439 1.074l-1.006-.001a1.56 1.56 0 0 0-.511-.792q-.392-.35-1.057-.35-.588 0-1.031.306a2 2 0 0 0-.687.857q-.243.55-.243 1.291 0 .759.239 1.321.242.562.681.874.443.31 1.04.311.392 0 .711-.136a1.46 1.46 0 0 0 .857-1.005h1.006a2.34 2.34 0 0 1-.422 1.044 2.36 2.36 0 0 1-.883.732q-.545.269-1.269.269m6.892-6.68v.852l-3.392-.001v-.852zm-2.403-1.569h1.006l-.002 6.239q0 .426.123.639a.65.65 0 0 0 .324.281q.2.069.422.069.166 0 .273-.017l.17-.034.205.903a2.1 2.1 0 0 1-.751.119q-.426 0-.835-.183a1.67 1.67 0 0 1-.673-.559q-.264-.375-.264-.946z"/><path fill="#E9ECF2" fill-rule="evenodd" d="m337.842 237.971.051-183h1.22l-.051 183.001z" clip-rule="evenodd"/></g><g clip-path="url(#d)"><path fill="#808D9E" d="M280.843 248.41a1.34 1.34 0 0 0-.622-1.006q-.545-.358-1.338-.358-.579 0-1.014.187a1.6 1.6 0 0 0-.674.516 1.23 1.23 0 0 0-.238.745q0 .35.166.601.17.247.434.414.264.162.554.268.29.103.533.167l.886.239q.34.089.759.247.421.158.805.431.387.269.639.69.25.422.251 1.036a2.3 2.3 0 0 1-.371 1.278q-.368.571-1.074.907-.704.337-1.709.337-.937-.002-1.624-.303a2.6 2.6 0 0 1-1.073-.844 2.4 2.4 0 0 1-.439-1.258l1.091.001q.042.494.332.818.294.32.742.477.451.154.971.154.605 0 1.087-.196a1.9 1.9 0 0 0 .763-.553q.28-.358.281-.836 0-.434-.242-.707a1.8 1.8 0 0 0-.64-.443 7 7 0 0 0-.856-.299l-1.074-.307q-1.023-.294-1.619-.84t-.596-1.428q0-.732.397-1.278.4-.549 1.074-.852a3.6 3.6 0 0 1 1.513-.306q.843 0 1.499.303a2.6 2.6 0 0 1 1.04.818q.387.52.409 1.181zm5.486 6.684q-.946-.001-1.632-.418a2.8 2.8 0 0 1-1.052-1.177q-.368-.759-.366-1.764 0-1.006.367-1.773a2.9 2.9 0 0 1 1.031-1.201q.664-.435 1.551-.434.512 0 1.01.17.499.171.908.555.409.379.651 1.005.243.627.243 1.543v.426l-5.046-.001.001-.87 4.022.002q0-.555-.221-.989a1.66 1.66 0 0 0-.622-.686 1.74 1.74 0 0 0-.946-.252q-.6 0-1.04.298a1.96 1.96 0 0 0-.669.767 2.26 2.26 0 0 0-.235 1.014v.58q0 .741.256 1.257.26.512.719.78.46.264 1.07.264a2.2 2.2 0 0 0 .716-.11 1.5 1.5 0 0 0 .558-.341q.235-.23.363-.571l.971.273a2.15 2.15 0 0 1-.516.869q-.362.37-.895.579a3.3 3.3 0 0 1-1.197.205m4.239 2.319.003-9h.971v1.04h.119q.11-.17.307-.435.2-.268.571-.477.375-.213 1.015-.212.827 0 1.457.413.63.414.984 1.172.354.76.353 1.79 0 1.04-.354 1.803-.354.757-.98 1.176a2.57 2.57 0 0 1-1.445.413q-.631 0-1.01-.209a1.9 1.9 0 0 1-.584-.482 7 7 0 0 1-.315-.452h-.085l-.001 3.46zm.99-5.727q0 .741.217 1.308.218.562.635.883.417.315 1.023.315.63 0 1.052-.332.427-.336.64-.903.217-.571.217-1.27.001-.69-.212-1.244a1.9 1.9 0 0 0-.635-.883q-.422-.327-1.061-.328-.614 0-1.031.311a1.86 1.86 0 0 0-.631.86q-.213.55-.214 1.283"/><path fill="#E9ECF2" fill-rule="evenodd" d="m285.381 237.957.051-183h1.22l-.051 183z" clip-rule="evenodd"/></g><g clip-path="url(#e)"><path fill="#808D9E" d="M221.914 254.939h-1.108l3.207-8.726h1.091l3.202 8.728h-1.108l-2.605-7.347h-.069zm.41-3.408 4.466.001v.937l-4.466-.001zm11.331.736.001-3.87 1.006.001-.002 6.545h-1.006l.001-1.108h-.068a2.16 2.16 0 0 1-.717.848q-.486.345-1.227.344-.614 0-1.091-.268a1.9 1.9 0 0 1-.75-.819q-.272-.55-.272-1.385l.001-4.159h1.006l-.001 4.091q0 .716.4 1.142.405.427 1.031.427.375 0 .763-.192a1.65 1.65 0 0 0 .656-.588q.269-.396.269-1.009m5.488 5.268q-.728 0-1.252-.188a2.7 2.7 0 0 1-.874-.486 2.7 2.7 0 0 1-.549-.639l.801-.562q.136.178.345.409.208.234.571.405.366.175.959.175.792 0 1.308-.383t.516-1.202v-1.329h-.085a6 6 0 0 1-.315.443 1.8 1.8 0 0 1-.58.464q-.375.2-1.014.2a2.73 2.73 0 0 1-1.423-.375 2.63 2.63 0 0 1-.993-1.092q-.362-.716-.362-1.738 0-1.007.354-1.752.354-.75.985-1.159a2.6 2.6 0 0 1 1.458-.412q.639 0 1.014.213.38.209.579.477.205.264.315.435h.103v-1.04l.971.001-.001 6.733q0 .843-.384 1.372a2.2 2.2 0 0 1-1.023.779 3.9 3.9 0 0 1-1.424.251m-.033-3.596q.606 0 1.023-.277.418-.277.635-.797t.218-1.244q0-.708-.213-1.249a1.9 1.9 0 0 0-.63-.848q-.418-.307-1.031-.307-.64 0-1.066.324a1.97 1.97 0 0 0-.635.869 3.4 3.4 0 0 0-.209 1.21q0 .681.213 1.206.216.52.639.818.426.294 1.056.295"/><path fill="#E9ECF2" fill-rule="evenodd" d="m230.482 237.942.05-183h1.22l-.05 183z" clip-rule="evenodd"/></g><g clip-path="url(#f)"><path fill="#808D9E" d="M175.47 246.2h1.056l-.001 6.238q0 .835-.307 1.419-.308.584-.866.887-.558.302-1.317.302-.716 0-1.274-.261a2.1 2.1 0 0 1-.877-.75q-.32-.486-.32-1.155l1.04.001q0 .37.183.647.188.273.511.427.324.153.738.153.456 0 .775-.191.32-.192.486-.563.171-.375.171-.916zm7.161 6.053.001-3.87 1.006.001-.002 6.545h-1.005v-1.108h-.068a2.15 2.15 0 0 1-.716.848q-.486.345-1.228.344-.613 0-1.091-.268a1.87 1.87 0 0 1-.749-.819q-.273-.55-.273-1.385l.001-4.159h1.006l-.001 4.091q0 .716.4 1.143.405.426 1.031.426.376 0 .763-.192.392-.19.657-.587.268-.397.268-1.01m3.855-6.05-.002 8.727h-1.006l.003-8.728z"/><path fill="#E9ECF2" fill-rule="evenodd" d="m178.022 237.927.05-183 2.44.001-.05 183z" clip-rule="evenodd"/><path fill="url(#g)" fill-rule="evenodd" d="m156.062 237.921.05-183 48.8.014-.05 183z" clip-rule="evenodd" opacity="0.1"/></g><g clip-path="url(#h)"><path fill="#808D9E" d="M122.753 246.185h1.056l-.001 6.239q0 .835-.307 1.419a2.1 2.1 0 0 1-.866.886q-.558.302-1.317.302a3 3 0 0 1-1.274-.26 2.1 2.1 0 0 1-.877-.751q-.32-.485-.32-1.154h1.04q0 .37.183.648.188.272.511.426.324.153.738.154.456 0 .775-.192.32-.192.486-.562.171-.375.171-.917zm7.161 6.053.001-3.869h1.006l-.002 6.545h-1.005v-1.108h-.068a2.16 2.16 0 0 1-.716.848q-.486.345-1.228.345-.614 0-1.091-.269a1.9 1.9 0 0 1-.749-.818q-.273-.55-.273-1.385l.001-4.16 1.006.001-.001 4.091q0 .716.4 1.142.405.426 1.031.426.375 0 .763-.191.392-.192.657-.588.268-.396.268-1.01m3.854-1.26-.001 3.937h-1.006l.002-6.546.972.001-.001 1.022h.086q.23-.498.699-.801.469-.306 1.21-.306.665 0 1.163.273.499.269.776.818.276.546.276 1.381l-.001 4.159h-1.006l.002-4.091q0-.771-.401-1.202-.4-.435-1.099-.435-.482 0-.861.209-.375.209-.592.609-.218.4-.218.972"/><path fill="#E9ECF2" fill-rule="evenodd" d="m130.442 237.914.05-183h1.22l-.05 183.001z" clip-rule="evenodd"/></g><g clip-path="url(#i)"><path fill="#808D9E" d="M62.214 246.168h1.262l2.964 7.246h.102l2.968-7.244h1.261l-.002 8.728-.989-.001.002-6.63h-.085l-2.73 6.63-.954-.001-2.725-6.631h-.086l-.001 6.631-.989-.001zm12.463 8.884q-.62 0-1.129-.234a1.94 1.94 0 0 1-.805-.687q-.298-.452-.298-1.091 0-.562.222-.912.222-.353.592-.553.371-.2.819-.299.45-.102.907-.161.596-.077.968-.115.375-.042.545-.14.175-.099.175-.341v-.034q0-.632-.345-.981-.34-.35-1.035-.349-.72 0-1.13.315-.408.315-.575.673l-.954-.341q.255-.597.682-.929.431-.337.937-.469.511-.136 1.006-.136a4 4 0 0 1 .724.077q.413.073.797.303.388.23.643.695.256.464.256 1.244l-.002 4.313-1.005-.001v-.886h-.051a1.8 1.8 0 0 1-.341.456q-.239.243-.635.413t-.968.17m.154-.903q.597 0 1.006-.234a1.6 1.6 0 0 0 .835-1.385v-.92q-.064.077-.28.14a5 5 0 0 1-.495.107 26 26 0 0 1-.963.127 4 4 0 0 0-.733.166 1.26 1.26 0 0 0-.545.337q-.205.22-.205.605 0 .523.387.792.393.265.993.265m5.095 3.206a2.2 2.2 0 0 1-.456-.043 1.2 1.2 0 0 1-.277-.077l.256-.886q.366.094.648.068a.77.77 0 0 0 .498-.251q.222-.222.405-.72l.188-.511-2.419-6.581 1.091.001 1.805 5.216h.069l1.808-5.215h1.09l-2.78 7.499q-.188.507-.464.84-.278.336-.644.498a2 2 0 0 1-.818.162"/><path fill="#E9ECF2" fill-rule="evenodd" d="m74.335 237.899.05-183h1.193l-.05 183z" clip-rule="evenodd"/></g><g clip-path="url(#j)"><path fill="#92929D" d="m12.95 234.362-2.827 7.775-1.154-.001 3.254-8.53h.744zm2.364 7.776-2.828-7.776-.017-.756h.744l3.262 8.532zm-.145-3.158v.926l-4.793-.002v-.925zm3.455-1.962-.002 7.558h-1.09l.003-8.777h.996zm4.271 1.9v.123q0 .691-.164 1.283-.165.585-.481 1.019a2.2 2.2 0 0 1-.768.674q-.457.24-1.049.24-.604 0-1.066-.2a2.1 2.1 0 0 1-.785-.58 3 3 0 0 1-.515-.914 5.3 5.3 0 0 1-.258-1.202v-.656q.07-.703.264-1.26.195-.556.51-.949.323-.397.78-.603.457-.21 1.054-.211.598.001 1.06.235.465.229.78.657.316.428.474 1.025.164.592.164 1.319m-1.09.122v-.123q0-.474-.1-.89a2.3 2.3 0 0 0-.31-.739 1.5 1.5 0 0 0-.527-.504 1.5 1.5 0 0 0-.767-.188q-.41 0-.715.141-.3.14-.51.381-.21.234-.346.539-.129.299-.193.621v1.517a3.4 3.4 0 0 0 .327.774q.21.357.563.58.351.217.884.217.44 0 .756-.181.322-.187.528-.51a2.3 2.3 0 0 0 .31-.738q.1-.422.1-.897m3.643-2.243-.001 5.344h-1.084l.001-6.34h1.055zm1.98-1.031-.005 1.008a2 2 0 0 0-.258-.035 3 3 0 0 0-.27-.012q-.374 0-.662.117a1.4 1.4 0 0 0-.486.328 1.6 1.6 0 0 0-.317.504 2.4 2.4 0 0 0-.146.633l-.305.176q0-.575.111-1.079.118-.504.358-.89.24-.393.61-.609a1.7 1.7 0 0 1 1.16-.193.8.8 0 0 1 .21.052"/><path fill="#F1F1F5" fill-rule="evenodd" d="m19.435 237.884.05-183h1.193l-.05 183z" clip-rule="evenodd"/></g><g filter="url(#k)"><path fill="#fff" d="M188.059 62.93c.002-6.627 5.376-11.998 12.004-11.996l47.999.013c6.628.002 11.999 5.376 11.997 12.003l-.004 14c-.002 6.627-5.376 11.999-12.003 11.997l-60-.017z"/></g><path fill="#1D1E25" d="M222.58 75.079q-1.109 0-1.969-.373-.855-.375-1.342-1.02a2.4 2.4 0 0 1-.477-1.477q-.005-.64.279-1.178.283-.537.766-.895a2.5 2.5 0 0 1 1.084-.462v-.07a2.15 2.15 0 0 1-1.273-.8 2.3 2.3 0 0 1-.477-1.457 2.32 2.32 0 0 1 .438-1.402q.443-.616 1.214-.969.77-.358 1.76-.357.979 0 1.745.358.77.354 1.212.97.448.616.447 1.402 0 .825-.492 1.457a2.15 2.15 0 0 1-1.258.8v.07a2.4 2.4 0 0 1 1.073.462q.483.358.766.895.288.536.288 1.178a2.4 2.4 0 0 1-.488 1.477q-.487.645-1.342 1.019-.851.372-1.954.372m0-1.422q.572 0 .994-.194.423-.198.657-.556a1.5 1.5 0 0 0 .239-.825 1.55 1.55 0 0 0-.254-.86 1.66 1.66 0 0 0-.671-.592 2.1 2.1 0 0 0-.964-.214q-.547 0-.975.213-.427.214-.676.591a1.5 1.5 0 0 0-.239.86q-.005.468.229.826.233.353.656.552.428.199 1.004.2m.001-4.638q.468 0 .826-.19.362-.187.572-.526.208-.338.214-.78a1.46 1.46 0 0 0-.209-.766 1.35 1.35 0 0 0-.567-.512 1.8 1.8 0 0 0-.835-.184q-.482 0-.85.183-.363.18-.567.512a1.4 1.4 0 0 0-.194.766q-.005.443.199.78.208.333.571.527.368.19.84.19m5.417 5.922V73.61l3.536-3.464q.507-.513.845-.91.339-.398.507-.77a1.9 1.9 0 0 0 .17-.796q0-.481-.219-.825a1.46 1.46 0 0 0-.601-.537 1.94 1.94 0 0 0-.87-.19q-.502 0-.88.21-.378.203-.587.58a1.9 1.9 0 0 0-.204.9h-1.755q0-.97.443-1.685a3 3 0 0 1 1.218-1.109q.781-.392 1.79-.392 1.024 0 1.8.383.776.384 1.202 1.05.433.666.433 1.521a3 3 0 0 1-.22 1.124q-.218.552-.77 1.222-.547.672-1.537 1.626l-1.756 1.784v.07l4.435.001v1.541zm12.458.198q-1.227 0-2.108-.623-.875-.626-1.346-1.805-.468-1.182-.467-2.848.005-1.665.473-2.834.473-1.173 1.348-1.79.88-.616 2.103-.615 1.223 0 2.103.617.88.616 1.347 1.79.472 1.173.471 2.834 0 1.67-.473 2.853-.468 1.178-1.348 1.8-.874.62-2.103.62m.001-1.557q.954 0 1.506-.939.558-.945.558-2.779 0-1.213-.253-2.038-.253-.826-.716-1.243a1.57 1.57 0 0 0-1.093-.423q-.95 0-1.502.944-.552.939-.558 2.76-.005 1.217.244 2.047.253.831.715 1.254.462.417 1.099.417"/><rect width="10" height="10" x="199.059" y="65.0757" fill="#2280FF" rx="2" transform="rotate(.016 199.059 65.076)"/><path stroke="#2280FF" stroke-linecap="round" stroke-width="3" d="M-8.964 148.762c4.498 1.848 15.134 6.997 21.687 12.815 8.193 7.271 34.701 15.24 50.612-2.063s23.144-23.533 34.712-23.53 19.281-2.418 32.301-20.415c13.019-17.997 17.266-26.692 33.266-26.645 15.468.045 23.294 10.737 26.988 16.623l8.673 13.503c3.533 5.655 13.034 15.234 26.949 16.257 13.914 1.024 24.613-4.149 35.712-12.778 10.336-8.037 28.443-16.608 43.863.012 12.336 13.296 18.633 18.006 20.239 18.698"/><path stroke="#F55" stroke-linecap="round" stroke-width="3" d="M-32.966 155.49c5.21 1.347 17.528 5.099 25.12 9.337 9.489 5.297 40.192 11.105 58.619-1.497 18.426-12.602 26.802-17.139 40.2-17.135s22.332-1.759 37.409-14.866 19.995-19.441 38.526-19.405c17.915.035 26.981 7.824 31.26 12.112l10.046 9.836c4.093 4.12 15.099 11.098 31.214 11.845 16.116.748 28.507-3.019 41.361-9.303 11.97-5.853 32.941-12.094 50.803.014 14.289 9.686 21.583 13.117 23.443 13.622"/></g><path fill="#fff" d="m-.047 50.878 59.78.017-.056 203-59.78-.017z"/><path fill="#808D9E" d="m15.514 60.155-.003 8.727h-1.057l.002-7.62h-.05l-2.132 1.415v-1.074l2.183-1.448zm3.548 6.342-.017-1.244h.205l2.864-2.914h1.245l-3.052 3.085h-.086zm-.938 2.386.002-8.727h1.006l-.003 8.727zm4.159.001-2.556-3.239.716-.699 3.118 3.939zm.279 170.12q-.963 0-1.64-.525-.678-.528-1.036-1.53-.357-1.005-.357-2.429 0-1.414.359-2.416.362-1.005 1.04-1.534.682-.532 1.636-.532.955 0 1.632.533.682.53 1.04 1.534.361 1.002.361 2.417 0 1.423-.358 2.429-.36 1-1.036 1.529-.678.524-1.641.524m0-.938q.955.001 1.483-.92.53-.92.53-2.625 0-1.133-.243-1.93-.239-.796-.69-1.215a1.53 1.53 0 0 0-1.078-.418q-.945 0-1.479.933-.533.929-.533 2.629 0 1.134.238 1.927.238.792.686 1.206.45.413 1.086.413"/><g clip-path="url(#l)"><path fill="#808D9E" d="M2.645 204.879v-.767l2.882-3.153q.507-.553.835-.963.33-.413.486-.775.162-.366.163-.767 0-.46-.222-.797a1.44 1.44 0 0 0-.596-.52 1.9 1.9 0 0 0-.853-.183 1.77 1.77 0 0 0-.877.208 1.44 1.44 0 0 0-.576.575q-.2.37-.2.869H2.68q0-.767.354-1.346t.963-.903q.614-.324 1.377-.324.766 0 1.36.324.59.325.928.874.336.55.336 1.223 0 .482-.175.942-.171.456-.597 1.018-.422.558-1.172 1.364l-1.96 2.096v.068l4.056.001v.937zm10.198.122q-.963 0-1.64-.525-.678-.528-1.036-1.53-.357-1.005-.357-2.429 0-1.414.359-2.416.362-1.005 1.04-1.534.682-.532 1.636-.532.955 0 1.632.533.682.529 1.04 1.535.362 1.001.361 2.416 0 1.423-.358 2.429-.359 1-1.036 1.529-.678.525-1.641.524m0-.937q.955 0 1.483-.921.53-.92.53-2.624 0-1.134-.243-1.931-.239-.797-.69-1.214a1.52 1.52 0 0 0-1.078-.418q-.945-.001-1.479.932-.533.93-.533 2.63 0 1.132.238 1.926.239.792.686 1.206.45.413 1.086.414m7.586.939q-.964 0-1.64-.524-.678-.53-1.036-1.531-.357-1.005-.357-2.429 0-1.414.358-2.416.363-1.005 1.04-1.534.682-.532 1.637-.532.954 0 1.632.533.682.529 1.04 1.535.36 1.001.361 2.416 0 1.424-.359 2.429-.358 1-1.035 1.529-.679.524-1.641.524m0-.937q.954 0 1.483-.92.529-.921.53-2.625 0-1.133-.243-1.931-.238-.797-.69-1.214a1.52 1.52 0 0 0-1.078-.418q-.946 0-1.479.933-.533.928-.533 2.629 0 1.132.238 1.926.238.792.685 1.206.453.414 1.087.414"/></g><g clip-path="url(#m)"><path fill="#808D9E" d="M2.45 169.089v-.869l3.837-6.067h.63v1.346h-.426l-2.899 4.585v.068l5.165.001v.938zm4.107 1.791v-2.054l.001-.405.002-6.268h1.005l-.002 8.727zm6.728.121q-.963 0-1.64-.524-.678-.53-1.035-1.531-.359-1.005-.357-2.429 0-1.414.358-2.416.363-1.005 1.04-1.534.682-.532 1.637-.532.954 0 1.632.533.68.529 1.04 1.535.36 1.001.36 2.416 0 1.424-.358 2.429-.358 1-1.036 1.529-.678.525-1.64.524m0-.937q.955 0 1.484-.92.528-.921.529-2.625 0-1.133-.242-1.931-.24-.797-.69-1.214a1.52 1.52 0 0 0-1.078-.418q-.946 0-1.48.933-.532.928-.533 2.629 0 1.132.238 1.926.24.792.686 1.206.451.414 1.087.414m7.586.939q-.963 0-1.64-.524-.678-.53-1.036-1.53-.357-1.006-.357-2.43 0-1.414.359-2.416.363-1.005 1.04-1.533.682-.533 1.637-.533.954.001 1.632.533.68.529 1.039 1.535.362 1.002.361 2.416 0 1.424-.358 2.429-.358 1.001-1.036 1.53-.678.523-1.64.523m0-.937q.955 0 1.484-.92.528-.921.529-2.625 0-1.133-.243-1.931-.239-.797-.69-1.214a1.52 1.52 0 0 0-1.078-.418q-.945 0-1.479.933-.533.928-.533 2.629 0 1.132.238 1.926.239.792.686 1.206.45.414 1.086.414"/></g><g clip-path="url(#n)"><path fill="#808D9E" d="M5.561 136.999a3.3 3.3 0 0 1-1.073-.205 2.6 2.6 0 0 1-.98-.661q-.444-.468-.712-1.265-.268-.802-.268-2.012 0-1.159.218-2.054.218-.898.631-1.512.414-.618.998-.938a2.7 2.7 0 0 1 1.325-.319q.733 0 1.304.295.576.29.937.809.363.52.469 1.198H7.37a1.93 1.93 0 0 0-.562-.976q-.418-.388-1.108-.388-1.014-.001-1.598.881-.58.882-.585 2.476h.068q.24-.362.567-.618.333-.26.733-.4a2.5 2.5 0 0 1 .848-.14q.75 0 1.372.375.622.371.997 1.027.375.653.375 1.496a3.1 3.1 0 0 1-.363 1.483 2.76 2.76 0 0 1-1.018 1.065q-.653.392-1.535.383m0-.937q.538 0 .964-.269.43-.269.677-.72a2.03 2.03 0 0 0 .252-1.005q0-.541-.242-.985a1.86 1.86 0 0 0-.66-.712 1.75 1.75 0 0 0-.955-.264q-.405 0-.755.162-.35.158-.613.434a2.1 2.1 0 0 0-.41.635 2.02 2.02 0 0 0 .766 2.446q.431.277.977.278m7.523.939q-.963 0-1.64-.524-.678-.53-1.035-1.531-.358-1.005-.358-2.429 0-1.414.359-2.416.363-1.005 1.04-1.534.682-.532 1.637-.532.954 0 1.632.533.68.529 1.039 1.535.362 1.001.361 2.416 0 1.423-.358 2.429-.358 1-1.036 1.529-.678.525-1.64.524m0-.937q.955 0 1.484-.92.529-.921.529-2.625 0-1.133-.243-1.931-.238-.797-.69-1.214a1.52 1.52 0 0 0-1.078-.418q-.945-.001-1.479.932-.533.93-.533 2.63 0 1.132.238 1.926.24.792.686 1.206.451.413 1.087.414m7.586.939q-.963 0-1.64-.524-.678-.53-1.036-1.531-.357-1.005-.357-2.429 0-1.414.359-2.416.362-1.005 1.04-1.533.682-.533 1.636-.533.955 0 1.632.533.682.529 1.04 1.535.361 1.001.361 2.416 0 1.424-.358 2.429-.36 1.001-1.036 1.53-.678.523-1.641.523m0-.937q.954 0 1.483-.92.53-.921.53-2.625 0-1.133-.243-1.931-.239-.797-.69-1.214a1.52 1.52 0 0 0-1.078-.418q-.945 0-1.479.933-.533.928-.533 2.629 0 1.132.238 1.926.238.792.686 1.206.45.414 1.086.414"/></g><g clip-path="url(#o)"><path fill="#808D9E" d="M5.468 102.999q-.878 0-1.551-.312a2.53 2.53 0 0 1-1.044-.865 2.17 2.17 0 0 1-.37-1.261 2.32 2.32 0 0 1 .823-1.811q.388-.32.865-.405v-.05a1.7 1.7 0 0 1-.997-.704 2.13 2.13 0 0 1-.366-1.24q-.004-.666.337-1.19t.937-.826a3 3 0 0 1 1.368-.302q.76 0 1.355.303.596.303.938.827.345.525.349 1.189-.005.694-.38 1.24-.37.54-.984.703v.05q.473.087.852.406.378.315.605.788.225.47.23 1.023-.006.707-.384 1.262-.376.549-1.045.864-.665.311-1.538.311m0-.937q.593 0 1.023-.192t.665-.541a1.46 1.46 0 0 0 .239-.818 1.57 1.57 0 0 0-.256-.874 1.74 1.74 0 0 0-.686-.597 2.15 2.15 0 0 0-.984-.217q-.559 0-.997.217-.435.217-.686.596a1.54 1.54 0 0 0-.244.874 1.43 1.43 0 0 0 .226.818q.235.35.669.541t1.031.193m.001-4.142q.47 0 .831-.188.367-.188.576-.524t.213-.788a1.46 1.46 0 0 0-.209-.772 1.36 1.36 0 0 0-.566-.511 1.85 1.85 0 0 0-.844-.183q-.49 0-.857.183-.366.18-.566.51a1.4 1.4 0 0 0-.197.772 1.46 1.46 0 0 0 .2.788q.21.338.576.525t.843.188M13 103q-.963 0-1.64-.525-.678-.528-1.035-1.53-.358-1.005-.358-2.429 0-1.414.359-2.416.363-1.005 1.04-1.534.682-.532 1.637-.532.954 0 1.632.533.68.529 1.039 1.535.362 1.001.362 2.416 0 1.423-.36 2.429-.357 1-1.035 1.529-.678.525-1.64.524m0-.937q.955 0 1.484-.92.528-.921.529-2.625 0-1.135-.242-1.93-.24-.798-.69-1.215a1.52 1.52 0 0 0-1.078-.418q-.946 0-1.48.932-.533.93-.533 2.63 0 1.132.238 1.926.24.792.686 1.206.451.413 1.086.414m7.586.939q-.963 0-1.64-.524-.678-.53-1.036-1.531-.357-1.005-.357-2.429 0-1.414.359-2.416.362-1.005 1.04-1.533.682-.533 1.636-.533.955 0 1.632.533.682.529 1.04 1.535.361 1.001.361 2.416 0 1.424-.358 2.429-.36 1-1.036 1.529-.678.525-1.641.524m0-.937q.955 0 1.483-.92.53-.921.53-2.625 0-1.135-.243-1.93-.238-.798-.69-1.215a1.52 1.52 0 0 0-1.078-.418q-.945 0-1.479.933-.533.928-.533 2.629 0 1.133.238 1.926.239.792.686 1.206.45.414 1.086.414"/></g><g filter="url(#p)"><rect width="14" height="14" x="172.054" y="84.9258" fill="#2280FF" rx="7" transform="rotate(.016 172.054 84.926)"/><rect width="12" height="12" x="173.053" y="85.9261" stroke="#fff" stroke-width="2" rx="6" transform="rotate(.016 173.053 85.926)"/></g><rect width="12.2" height="10" x="169.543" y="15.925" fill="#F55" rx="2" transform="rotate(.016 169.543 15.925)"/><path fill="#1D1E25" d="M200.929 18.934h-1.233a2.57 2.57 0 0 0-1.039-1.612 2.8 2.8 0 0 0-.85-.418 3.4 3.4 0 0 0-.974-.139q-.925 0-1.676.467-.745.466-1.189 1.377-.436.909-.438 2.232 0 1.322.437 2.232.443.91 1.188 1.378.75.467 1.675.467.507 0 .975-.139t.85-.412a2.6 2.6 0 0 0 1.04-1.615h1.232q-.139.78-.507 1.397a3.8 3.8 0 0 1-2.143 1.7 4.6 4.6 0 0 1-1.447.223q-1.303 0-2.317-.637-1.013-.637-1.595-1.81-.581-1.174-.581-2.785 0-1.61.583-2.783.582-1.174 1.596-1.81t2.317-.635q.77 0 1.447.224.681.224 1.227.656.547.427.915 1.045.367.61.507 1.397m4.433 7.16q-1.034 0-1.814-.493a3.34 3.34 0 0 1-1.213-1.377q-.432-.886-.432-2.068 0-1.194.433-2.083a3.33 3.33 0 0 1 1.214-1.382q.78-.492 1.814-.492t1.81.493q.78.492 1.212 1.382.438.89.437 2.083 0 1.185-.438 2.069a3.3 3.3 0 0 1-1.213 1.376q-.776.492-1.81.492m0-1.054q.786 0 1.293-.402a2.37 2.37 0 0 0 .751-1.059 4 4 0 0 0 .244-1.422q0-.765-.243-1.427a2.4 2.4 0 0 0-.751-1.069q-.506-.408-1.292-.408t-1.293.407a2.4 2.4 0 0 0-.751 1.07q-.244.66-.244 1.426t.243 1.422q.244.656.751 1.059t1.292.403m4.751.896.002-7.636h1.134v1.193h.099q.238-.611.771-.949.532-.343 1.278-.343.756 0 1.257.344.507.338.791.95h.079q.294-.592.88-.94.588-.352 1.408-.352 1.024 0 1.675.641.651.637.651 1.984l-.002 5.111h-1.173l.001-5.111q0-.845-.462-1.208a1.7 1.7 0 0 0-1.088-.364q-.805 0-1.248.487-.443.483-.443 1.223l-.002 4.972h-1.193l.002-5.23q0-.652-.423-1.05-.422-.402-1.088-.403-.457 0-.856.244a1.84 1.84 0 0 0-.636.676 2 2 0 0 0-.239.989l-.001 4.773zm11.668 2.867.002-10.5h1.134v1.213h.139a10 10 0 0 1 .358-.506q.234-.315.666-.557.437-.248 1.184-.248.964 0 1.7.482.735.483 1.148 1.368t.412 2.088q0 1.214-.413 2.103-.414.885-1.144 1.372-.73.482-1.686.482-.735 0-1.178-.244a2.2 2.2 0 0 1-.681-.562 8 8 0 0 1-.368-.527h-.099l-.001 4.037zm1.155-6.681q0 .864.253 1.526.254.656.74 1.03.487.367 1.194.367.735 0 1.228-.387.497-.393.746-1.054.253-.666.254-1.481 0-.806-.249-1.452a2.24 2.24 0 0 0-.74-1.03q-.492-.382-1.238-.382-.715 0-1.203.362-.487.358-.736 1.004-.249.642-.249 1.497m10.078 3.98q-1.103 0-1.904-.488a3.27 3.27 0 0 1-1.227-1.373q-.428-.885-.427-2.058 0-1.173.428-2.068.433-.9 1.203-1.402.776-.507 1.81-.506.597 0 1.178.199.582.199 1.059.647.477.443.76 1.173t.283 1.8v.497l-5.886-.002v-1.014l4.693.002q0-.647-.258-1.154a1.95 1.95 0 0 0-.726-.8q-.467-.294-1.103-.294-.701 0-1.213.347a2.3 2.3 0 0 0-.781.895 2.6 2.6 0 0 0-.274 1.183v.676q0 .865.298 1.467.303.597.84.91.537.309 1.248.309.462 0 .835-.13.378-.133.651-.397.274-.268.423-.666l1.133.319q-.179.576-.601 1.014-.423.432-1.045.675-.621.24-1.397.239m7.77-7.794v.995l-3.957-.001v-.995zm-2.803-1.83h1.173l-.002 7.279q0 .497.144.746a.74.74 0 0 0 .378.328q.233.08.492.08.193 0 .318-.02l.199-.04.238 1.054q-.118.045-.333.09-.213.049-.542.049-.497 0-.974-.214a1.93 1.93 0 0 1-.785-.652q-.31-.437-.308-1.103zm4.066 9.467.002-7.636h1.173l-.002 7.636zm.599-8.909a.84.84 0 0 1-.592-.234.75.75 0 0 1-.243-.561q0-.329.244-.562a.83.83 0 0 1 .591-.234q.344 0 .587.234a.74.74 0 0 1 .248.562.74.74 0 0 1-.248.562.82.82 0 0 1-.587.233m5.546 1.274v.995l-3.957-.001v-.995zm-2.803-1.83h1.173l-.002 7.279q0 .497.144.746.15.243.378.328.234.08.492.08.194 0 .318-.02l.199-.04.238 1.054q-.118.045-.333.09-.213.05-.542.049-.497 0-.974-.214a1.93 1.93 0 0 1-.785-.652q-.308-.437-.308-1.103zm7.086 9.627q-1.034 0-1.814-.493a3.35 3.35 0 0 1-1.213-1.377q-.432-.886-.432-2.068 0-1.194.433-2.083a3.34 3.34 0 0 1 1.214-1.382q.78-.492 1.815-.492t1.809.493q.78.492 1.213 1.382.437.89.437 2.084-.001 1.183-.438 2.068a3.3 3.3 0 0 1-1.214 1.376q-.775.492-1.81.492m.001-1.054q.785 0 1.292-.402.508-.403.751-1.059a4 4 0 0 0 .244-1.422 4.1 4.1 0 0 0-.243-1.427 2.4 2.4 0 0 0-.75-1.069q-.507-.408-1.293-.408t-1.292.408a2.4 2.4 0 0 0-.751 1.068 4.1 4.1 0 0 0-.244 1.427q-.001.765.243 1.422.243.656.75 1.059t1.293.403m4.751.896.002-7.636h1.133v1.154h.08q.209-.567.755-.92a2.23 2.23 0 0 1 1.234-.352q.128 0 .323.005.194.004.293.015v1.193a4 4 0 0 0-.274-.045 3 3 0 0 0-.442-.035q-.557 0-.995.233a1.71 1.71 0 0 0-.935 1.556l-.001 4.833z"/><rect width="12.2" height="10" x="1.18262" y="15.8787" fill="#2280FF" rx="2" transform="rotate(.016 1.183 15.879)"/><path fill="#1D1E25" d="M24.376 15.703h1.471l3.458 8.453h.12l3.462-8.45h1.472l-.003 10.182h-1.153l.002-7.736h-.1l-3.184 7.735h-1.113l-3.18-7.737h-.1l-.002 7.735h-1.153zm12.548 13.05q-.298-.001-.532-.05a1.4 1.4 0 0 1-.323-.09l.298-1.034q.428.11.756.08a.9.9 0 0 0 .582-.294q.258-.258.472-.84l.22-.596-2.822-7.677h1.272l2.107 6.086h.08l2.109-6.085h1.273l-3.244 8.75q-.219.59-.543.98a2 2 0 0 1-.75.58q-.423.19-.955.19m9.975.002.003-10.5h1.133v1.213h.139q.13-.198.358-.507a2.1 2.1 0 0 1 .667-.556q.437-.25 1.183-.248.965 0 1.7.482.735.483 1.148 1.368t.412 2.088q0 1.214-.413 2.103-.413.885-1.144 1.372-.732.482-1.685.481-.736 0-1.179-.244a2.2 2.2 0 0 1-.68-.561 8 8 0 0 1-.368-.528h-.1l-.001 4.037zm1.155-6.681q0 .864.253 1.526.254.655.74 1.03.487.367 1.194.367.735 0 1.228-.387a2.37 2.37 0 0 0 .746-1.054q.254-.666.254-1.481 0-.806-.248-1.452a2.24 2.24 0 0 0-.74-1.03q-.493-.382-1.239-.383-.715 0-1.203.363-.487.358-.736 1.004-.249.642-.249 1.496m6.877 3.82.002-7.637h1.133v1.154h.08q.208-.566.756-.92a2.2 2.2 0 0 1 1.233-.352q.13 0 .323.005.194.005.293.015v1.193a4 4 0 0 0-.274-.045 3 3 0 0 0-.442-.035q-.557 0-.994.234a1.76 1.76 0 0 0-.687.636 1.7 1.7 0 0 0-.249.92v4.832zm7.579.16q-1.035 0-1.815-.492a3.34 3.34 0 0 1-1.213-1.377q-.432-.885-.432-2.069 0-1.193.434-2.083a3.34 3.34 0 0 1 1.213-1.382q.78-.491 1.815-.491t1.81.492q.78.494 1.212 1.383.437.89.437 2.083 0 1.183-.438 2.068a3.3 3.3 0 0 1-1.214 1.377q-.775.492-1.81.492m0-1.053q.785 0 1.293-.403.507-.401.75-1.058.244-.657.245-1.422 0-.765-.244-1.427a2.4 2.4 0 0 0-.75-1.07q-.507-.407-1.293-.407t-1.292.407a2.4 2.4 0 0 0-.751 1.069q-.244.66-.244 1.427 0 .765.243 1.421.243.657.75 1.06.508.402 1.293.403m7.634 1.056q-.954 0-1.685-.483-.73-.487-1.143-1.372-.412-.891-.412-2.103 0-1.203.413-2.088t1.149-1.367 1.7-.482q.746 0 1.179.249.436.243.666.557.233.308.362.507h.1v-3.758h1.174l-.003 10.182H72.51v-1.174h-.139a8 8 0 0 1-.368.527q-.24.313-.681.562-.442.243-1.179.243m.16-1.054q.705 0 1.193-.368.487-.372.741-1.029.254-.661.254-1.526 0-.855-.248-1.496-.248-.646-.736-1.005-.486-.363-1.203-.363-.745 0-1.243.382a2.3 2.3 0 0 0-.74 1.03 4.1 4.1 0 0 0-.245 1.451q0 .814.248 1.482.255.66.746 1.054.496.387 1.233.388m9.965-2.225.002-4.514h1.173l-.002 7.637h-1.173v-1.293h-.08q-.268.581-.835.989-.567.402-1.432.402a2.55 2.55 0 0 1-1.273-.313 2.2 2.2 0 0 1-.874-.955q-.318-.642-.318-1.616l.001-4.852h1.174l-.002 4.773q0 .835.467 1.332.472.498 1.203.498.438 0 .89-.224a1.94 1.94 0 0 0 .766-.685q.313-.463.313-1.179m5.924 3.283q-1.073 0-1.85-.507a3.3 3.3 0 0 1-1.192-1.398q-.417-.889-.417-2.033 0-1.164.428-2.053a3.4 3.4 0 0 1 1.204-1.397q.775-.507 1.81-.507.804 0 1.451.3.646.297 1.059.835.412.537.511 1.253h-1.173q-.135-.523-.596-.926-.457-.407-1.233-.408a2.06 2.06 0 0 0-1.203.358q-.513.352-.8.999-.284.642-.285 1.506 0 .885.278 1.542.284.656.796 1.019.516.363 1.212.363.458 0 .83-.159.374-.159.632-.457.259-.298.368-.716h1.174q-.1.676-.493 1.219a2.75 2.75 0 0 1-1.03.855q-.636.312-1.48.312m7.541-7.793v.994h-3.957v-.995zm-2.803-1.83h1.173l-.002 7.278q0 .497.144.746.15.244.378.328.234.08.492.08.194 0 .318-.02l.2-.04.237 1.055q-.12.045-.333.089-.213.05-.542.05-.497 0-.974-.215a1.94 1.94 0 0 1-.785-.651q-.309-.438-.308-1.104z"/></g><defs><clipPath id="a"><path fill="#fff" d="m.577.878 366 .101-.072 260-366-.1z"/></clipPath><clipPath id="c"><path fill="#fff" d="m325.692 54.968 26.84.007-.057 206-26.84-.007z"/></clipPath><clipPath id="d"><path fill="#fff" d="m272.012 54.953 29.28.008-.057 206-29.28-.008z"/></clipPath><clipPath id="e"><path fill="#fff" d="m217.112 54.938 30.5.009-.057 206-30.5-.009z"/></clipPath><clipPath id="f"><path fill="#fff" d="m156.112 54.921 48.8.014-.057 206-48.8-.014z"/></clipPath><clipPath id="h"><path fill="#fff" d="m114.632 54.91 29.28.008-.057 206-29.28-.008z"/></clipPath><clipPath id="i"><path fill="#fff" d="m57.292 54.894 32.94.01-.057 206-32.94-.01z"/></clipPath><clipPath id="j"><path fill="#fff" d="m4.832 54.88 28.06.007-.057 206-28.06-.008z"/></clipPath><clipPath id="l"><path fill="#fff" d="m-.084 188.878 29.28.008-.007 24-29.28-.008z"/></clipPath><clipPath id="m"><path fill="#fff" d="m-.075 154.878 29.28.008-.007 24-29.28-.008z"/></clipPath><clipPath id="n"><path fill="#fff" d="m-.065 120.878 29.28.008-.007 24-29.28-.008z"/></clipPath><clipPath id="o"><path fill="#fff" d="m-.057 86.878 29.28.008-.006 24-29.28-.008z"/></clipPath><filter id="k" width="116.008" height="82.0132" x="166.052" y="32.9336" color-interpolation-filters="sRGB" filterUnits="userSpaceOnUse"><feFlood flood-opacity="0" result="BackgroundImageFix"/><feColorMatrix in="SourceAlpha" result="hardAlpha" values="0 0 0 0 0 0 0 0 0 0 0 0 0 0 0 0 0 0 127 0"/><feOffset dy="4"/><feGaussianBlur stdDeviation="11"/><feComposite in2="hardAlpha" operator="out"/><feColorMatrix values="0 0 0 0 0.624722 0 0 0 0 0.6401 0 0 0 0 0.720833 0 0 0 0.25 0"/><feBlend in2="BackgroundImageFix" mode="multiply" result="effect1_dropShadow_1_4560"/><feBlend in="SourceGraphic" in2="effect1_dropShadow_1_4560" result="shape"/></filter><filter id="p" width="22" height="22" x="168.052" y="82.9277" color-interpolation-filters="sRGB" filterUnits="userSpaceOnUse"><feFlood flood-opacity="0" result="BackgroundImageFix"/><feColorMatrix in="SourceAlpha" result="hardAlpha" values="0 0 0 0 0 0 0 0 0 0 0 0 0 0 0 0 0 0 127 0"/><feOffset dy="2"/><feGaussianBlur stdDeviation="2"/><feColorMatrix values="0 0 0 0 0.268354 0 0 0 0 0.268354 0 0 0 0 0.31049 0 0 0 0.15 0"/><feBlend in2="BackgroundImageFix" result="effect1_dropShadow_1_4560"/><feBlend in="SourceGraphic" in2="effect1_dropShadow_1_4560" result="shape"/></filter><linearGradient id="g" x1="180.512" x2="180.462" y1="54.9281" y2="237.928" gradientUnits="userSpaceOnUse"><stop stop-color="#2A85FF"/><stop offset="1" stop-color="#2A85FF" stop-opacity="0"/></linearGradient></defs></svg>